# xmcd
#
# Track frame offsets:
# 150
# 14212
# 31203
# 65990
# 80463
# 95607
# 116107
# 129508
# 142981
# 161934
# 178397
# 192039
# 201376
# 211866
#
# Disc length: 3013 seconds
#
# Revision: 0
# Processed by: cddbd v1.4PL0 Copyright (c) Steve Scherf et al.
# Submitted via: Axialis_AX_CDPlayer 2.6
#
DISCID=d80bc30e
DTITLE=Various Artists. Rockdelux. - esto no es un cactus
DYEAR=1900
DGENRE=
TTITLE0=South San Gabriel - one-hundred thousand bridesmaids
TTITLE1=Mary Gauthier - i drink
TTITLE2=Michael de Jong - park bench serenade
TTITLE3=Jackpot - la la land
TTITLE4=Virgil Shaw - volvo
TTITLE5=Gitbox - the low road
TTITLE6=The Gourds - everybody's missing the sun
TTITLE7=The Mother Hips - channel island girl
TTITLE8=Western Electric - the power of glory
TTITLE9=Johnny Dowd - big wave
TTITLE10=Damon Bramblett - tear him down
TTITLE11=The Bigger Lovers - forever is not so long
TTITLE12=The Baptist Generals - pats the rub
TTITLE13=Centro-Matic - truth flies out
EXTD=Catagolado por Jamon de Mono.
EXTT0=
EXTT1=
EXTT2=
EXTT3=
EXTT4=
EXTT5=
EXTT6=
EXTT7=
EXTT8=
EXTT9=
EXTT10=
EXTT11=
EXTT12=
EXTT13=
PLAYORDER=
